<svg xmlns="http://www.w3.org/2000/svg" viewBox="0 0 384 512" fill="#4A90E2">
  <path d="M64 0C28.7 0 0 28.7 0 64V448c0 35.3 28.7 64 64 64H320c35.3 0 64-28.7 64-64V160H256c-17.7 0-32-14.3-32-32V0H64zM256 0V128H384L256 0zM111 257.1c0-8.8 7.2-16 16-16s16 7.2 16 16v94.9c0 8.8-7.2 16-16 16s-16-7.2-16-16V257.1zm80 0c0-8.8 7.2-16 16-16h48c44.2 0 80 35.8 80 80c0 23.1-9.8 43.8-25.4 58.4c-6.1 5.7-9.2 13.2-9.2 19.6c0 10.2 8.2 18.4 18.4 18.4h16.8c8.8 0 16 7.2 16 16s-7.2 16-16 16H304c-17.9 0-32.4-14.5-32.4-32.4c0-9.9 4.9-19.2 13.1-24.8c15.8-10.7 26.2-28.7 26.2-49.2c0-32.7-26.5-59.1-59.1-59.1H207c-8.8 0-16 7.2-16 16v128c0 8.8-7.2 16-16 16s-16-7.2-16-16V257.1z"/>
</svg>
